<svg width="23" height="11" viewBox="0 0 23 11" fill="#ffffff" xmlns="http://www.w3.org/2000/svg">
<path d="M15.8749 3.50305H0.790918C0.631788 3.50305 0.479176 3.56626 0.366654 3.67878C0.254132 3.79131 0.190918 3.94392 0.190918 4.10305L0.190918 6.90305C0.190918 6.98184 0.206437 7.05986 0.23659 7.13266C0.266743 7.20545 0.310939 7.2716 0.366654 7.32731C0.422369 7.38303 0.488513 7.42722 0.561308 7.45738C0.634103 7.48753 0.712125 7.50305 0.790918 7.50305H15.8749V9.80305C15.8753 10.04 15.9459 10.2716 16.0777 10.4685C16.2095 10.6654 16.3967 10.8189 16.6156 10.9096C16.8346 11.0003 17.0755 11.0242 17.3079 10.9782C17.5404 10.9321 17.754 10.8183 17.9219 10.651L22.2219 6.35105C22.3338 6.23956 22.4226 6.10709 22.4831 5.96123C22.5437 5.81537 22.5749 5.65898 22.5749 5.50105C22.5749 5.34311 22.5437 5.18673 22.4831 5.04086C22.4226 4.895 22.3338 4.76253 22.2219 4.65105L17.9219 0.351047C17.754 0.183779 17.5404 0.0699603 17.3079 0.023942C17.0755 -0.0220764 16.8346 0.00176589 16.6156 0.0924635C16.3967 0.183161 16.2095 0.336652 16.0777 0.533584C15.9459 0.730515 15.8753 0.962068 15.8749 1.19905V3.50305Z"/>
</svg>
