<svg width="18" height="19" viewBox="0 0 18 19" fill="none" xmlns="http://www.w3.org/2000/svg">
<path d="M8.923 4.99129C8.01835 4.99129 7.13401 5.25955 6.38182 5.76214C5.62963 6.26474 5.04337 6.9791 4.69718 7.81489C4.35098 8.65068 4.2604 9.57036 4.43689 10.4576C4.61338 11.3449 5.04901 12.1599 5.68869 12.7996C6.32838 13.4393 7.14339 13.8749 8.03066 14.0514C8.91793 14.2279 9.8376 14.1373 10.6734 13.7911C11.5092 13.4449 12.2235 12.8587 12.7261 12.1065C13.2287 11.3543 13.497 10.4699 13.497 9.56529C13.4981 8.96432 13.3805 8.36907 13.151 7.81365C12.9215 7.25823 12.5846 6.75358 12.1597 6.32863C11.7347 5.90369 11.2301 5.56681 10.6746 5.33732C10.1192 5.10783 9.52396 4.99024 8.923 4.99129ZM8.923 12.5383C8.335 12.5383 7.7602 12.3639 7.27129 12.0372C6.78238 11.7106 6.40133 11.2462 6.17631 10.703C5.95129 10.1598 5.89241 9.56199 6.00713 8.98528C6.12184 8.40858 6.40499 7.87884 6.82077 7.46306C7.23655 7.04728 7.76629 6.76413 8.343 6.64941C8.9197 6.5347 9.51747 6.59358 10.0607 6.81859C10.604 7.04361 11.0683 7.42467 11.395 7.91358C11.7216 8.40248 11.896 8.97728 11.896 9.56529C11.8944 10.3533 11.5807 11.1086 11.0235 11.6658C10.4663 12.223 9.711 12.5367 8.923 12.5383ZM14.75 4.80429C14.75 5.01532 14.6874 5.22161 14.5702 5.39708C14.4529 5.57255 14.2863 5.70931 14.0913 5.79007C13.8964 5.87083 13.6818 5.89196 13.4748 5.85079C13.2679 5.80962 13.0777 5.70799 12.9285 5.55877C12.7793 5.40955 12.6777 5.21943 12.6365 5.01245C12.5953 4.80547 12.6165 4.59093 12.6972 4.39596C12.778 4.201 12.9147 4.03435 13.0902 3.91711C13.2657 3.79987 13.472 3.73729 13.683 3.73729C13.8233 3.73676 13.9623 3.76399 14.0921 3.81741C14.2218 3.87083 14.3397 3.94939 14.439 4.04857C14.5383 4.14774 14.6169 4.26557 14.6705 4.39527C14.724 4.52496 14.7514 4.66397 14.751 4.80429H14.75ZM17.775 5.88629C17.8045 4.49935 17.2868 3.15655 16.334 2.14829C15.3237 1.19869 13.9823 0.681572 12.596 0.707287C11.123 0.623287 6.709 0.623287 5.236 0.707287C3.85013 0.679639 2.50847 1.19542 1.498 2.14429C0.549305 3.15473 0.034171 4.49659 0.063 5.88229C-0.021 7.35529 -0.021 11.7693 0.063 13.2423C0.0335268 14.6292 0.551177 15.972 1.504 16.9803C2.51461 17.9286 3.85534 18.4453 5.241 18.4203C6.714 18.5043 11.128 18.5043 12.601 18.4203C13.9879 18.4498 15.3307 17.9321 16.339 16.9793C17.2865 15.9685 17.8018 14.6275 17.775 13.2423C17.863 11.7693 17.863 7.35929 17.775 5.88629ZM15.875 14.8203C15.7237 15.2053 15.4946 15.5549 15.2021 15.8474C14.9096 16.1399 14.56 16.3689 14.175 16.5203C13.001 16.9863 10.214 16.8783 8.917 16.8783C7.62 16.8783 4.829 16.9783 3.659 16.5203C3.27403 16.3689 2.9244 16.1399 2.6319 15.8474C2.33941 15.5549 2.11034 15.2053 1.959 14.8203C1.493 13.6463 1.601 10.8593 1.601 9.56229C1.601 8.26529 1.501 5.47429 1.959 4.30429C2.11034 3.91932 2.33941 3.56968 2.6319 3.27719C2.9244 2.9847 3.27403 2.75563 3.659 2.60429C4.833 2.13829 7.62 2.24629 8.917 2.24629C10.214 2.24629 13.005 2.14629 14.175 2.60429C14.56 2.75563 14.9096 2.9847 15.2021 3.27719C15.4946 3.56968 15.7237 3.91932 15.875 4.30429C16.341 5.47829 16.233 8.26529 16.233 9.56229C16.233 10.8593 16.343 13.6523 15.875 14.8203Z" fill="#1D1D1F"/>
</svg>
