<svg width="16" height="15" viewBox="0 0 16 15" fill="none" xmlns="http://www.w3.org/2000/svg">
<path d="M7.18206 0.506749L5.32306 4.27775L1.16306 4.88475C0.99522 4.91014 0.837799 4.98186 0.708509 5.09185C0.579219 5.20184 0.483191 5.34572 0.43123 5.50732C0.37927 5.66892 0.37344 5.84181 0.414396 6.00654C0.455352 6.17127 0.541469 6.3213 0.663056 6.43975L3.67306 9.37275L2.96106 13.5157C2.93251 13.6832 2.95132 13.8552 3.01537 14.0125C3.07942 14.1698 3.18616 14.306 3.32353 14.4058C3.46091 14.5057 3.62346 14.5651 3.79283 14.5775C3.9622 14.5898 4.13165 14.5546 4.28206 14.4757L8.00406 12.5197L11.7261 14.4757C11.8765 14.5546 12.0459 14.5898 12.2153 14.5775C12.3847 14.5651 12.5472 14.5057 12.6846 14.4058C12.822 14.306 12.9287 14.1698 12.9927 14.0125C13.0568 13.8552 13.0756 13.6832 13.0471 13.5157L12.3311 9.37175L15.3411 6.43875C15.4626 6.3203 15.5488 6.17027 15.5897 6.00554C15.6307 5.84081 15.6248 5.66792 15.5729 5.50632C15.5209 5.34472 15.4249 5.20084 15.2956 5.09085C15.1663 4.98086 15.0089 4.90914 14.8411 4.88375L10.6811 4.27675L8.81706 0.506749C8.74168 0.35432 8.62518 0.226002 8.48072 0.136284C8.33627 0.0465665 8.16961 -0.000976563 7.99956 -0.000976562C7.82951 -0.000976563 7.66284 0.0465665 7.51839 0.136284C7.37393 0.226002 7.25744 0.35432 7.18206 0.506749Z" fill="#06C167"/>
</svg>
