<svg width="21" height="17" viewBox="0 0 21 17" fill="none" xmlns="http://www.w3.org/2000/svg">
<path d="M18.285 4.41344C18.298 4.59444 18.298 4.77544 18.298 4.95644C18.3092 6.52019 18.0094 8.07056 17.4161 9.51743C16.8229 10.9643 15.9479 12.2788 14.8422 13.3846C13.7364 14.4904 12.4219 15.3653 10.975 15.9586C9.52812 16.5519 7.97775 16.8516 6.414 16.8404C4.14 16.8465 1.91267 16.1954 0 14.9654C0.335031 15.0024 0.67194 15.0198 1.009 15.0174C2.88915 15.0222 4.71606 14.3933 6.195 13.2324C5.32305 13.2163 4.47794 12.9281 3.7778 12.4082C3.07765 11.8882 2.55748 11.1625 2.29 10.3324C2.551 10.3739 2.81474 10.3956 3.079 10.3974C3.45018 10.3965 3.81976 10.3488 4.179 10.2554C3.23306 10.0641 2.38256 9.55117 1.77203 8.80374C1.16151 8.05631 0.82864 7.12053 0.83 6.15544V6.10644C1.4088 6.42936 2.0557 6.61096 2.718 6.63644C1.83156 6.04518 1.20417 5.13792 0.963878 4.09982C0.723589 3.06173 0.888517 1.97107 1.425 1.05044C2.4741 2.34175 3.78289 3.39815 5.26649 4.15115C6.75009 4.90415 8.37539 5.33693 10.037 5.42144C9.97112 5.10669 9.93761 4.78602 9.937 4.46444C9.93905 3.62793 10.192 2.81126 10.6631 2.12002C11.1342 1.42878 11.8019 0.894752 12.5797 0.586976C13.3575 0.2792 14.2098 0.21183 15.0263 0.393571C15.8429 0.575312 16.5861 0.997809 17.16 1.60644C18.0954 1.42619 18.9924 1.08478 19.811 0.59744C19.4992 1.56194 18.8464 2.37967 17.975 2.89744C18.8044 2.80287 19.6151 2.58479 20.38 2.25044C19.8081 3.08316 19.0999 3.81341 18.285 4.41044V4.41344Z" fill="#1D1D1F"/>
</svg>
